<?xml version="1.0" encoding="utf-8"?>
<!-- Generator: Adobe Illustrator 21.0.2, SVG Export Plug-In . SVG Version: 6.00 Build 0)  -->
<svg version="1.1" id="Layer_1" xmlns="http://www.w3.org/2000/svg" xmlns:xlink="http://www.w3.org/1999/xlink" x="0px" y="0px"
	 viewBox="0 0 757 246" style="enable-background:new 0 0 757 246;" xml:space="preserve">
<style type="text/css">
	.st0{fill:#FFFFFF;}
	.st1{fill:none;stroke:#000000;stroke-width:0.7429;stroke-miterlimit:3.8637;}
	.st2{clip-path:url(#SVGID_2_);}
	.st3{fill:none;stroke:#000000;stroke-width:0.8736;stroke-miterlimit:3.8637;}
	.st4{clip-path:url(#SVGID_4_);}
	.st5{fill:none;stroke:#000000;stroke-width:1.3095;stroke-miterlimit:3.8637;}
</style>
<g>
	<path d="M226,125.2c2.7,0.9,4.3,1.3,4.6,1.3c0.7,0,1.3-0.2,1.9-0.6c0.6-0.4,1-1.1,1.3-2h1.5L236,142h-1.7c-1-3.6-2.2-6.5-3.8-8.7
		c-3-4.2-6.9-6.2-11.9-6.2c-5.1,0-9.2,2.2-12.4,6.7c-3.2,4.5-4.8,10.6-4.8,18.5c0,7.2,1.7,13,5,17.3c3.4,4.3,7.7,6.4,12.8,6.4
		c3.7,0,7.2-1,10.3-3c1.8-1.1,3.8-2.8,6-5.1l1.3,1.5c-1.6,2.3-3.6,4.3-6,6c-4,2.9-8.4,4.3-13.1,4.3c-7.8,0-13.9-2.8-18.5-8.3
		c-4.2-5.1-6.3-11.5-6.3-19.2c0-7.9,2.2-14.5,6.7-19.8c4.7-5.6,10.8-8.4,18.3-8.4C220.6,123.9,223.3,124.3,226,125.2L226,125.2z"/>
	<path d="M243.5,146.7c3-3.6,6.8-5.4,11.5-5.4c4.7,0,8.5,1.7,11.6,5.1c3.1,3.4,4.6,8,4.6,13.7c0,5.2-1.5,9.8-4.4,13.7
		c-3,3.9-6.8,5.8-11.5,5.8c-4.5,0-8.3-1.9-11.5-5.6c-3.1-3.7-4.7-8.4-4.7-14C239.1,154.8,240.6,150.3,243.5,146.7L243.5,146.7z
		 M249.2,145.7c-2.3,2.4-3.5,6.5-3.5,12.4c0,4.7,0.9,9.1,2.8,13.1c1.9,4.1,4.5,6.1,7.9,6.1c2.6,0,4.6-1.4,6.1-4.1
		c1.4-2.7,2.1-6.3,2.1-10.7c0-4.6-0.9-8.8-2.7-12.9c-1.8-4-4.4-6-7.9-6C252.2,143.7,250.6,144.3,249.2,145.7L249.2,145.7z"/>
	<path d="M271.5,177c2.2-0.2,3.6-0.6,4.3-1.3c0.7-0.7,1.1-2,1.1-4.1v-17.8c0-2.6-0.2-4.5-0.7-5.6c-0.4-1.1-1.2-1.7-2.4-1.7
		c-0.2,0-0.6,0-1,0.1c-0.4,0.1-0.8,0.1-1.2,0.2v-1.3c1.3-0.5,2.7-1.1,4.1-1.6c1.4-0.6,2.4-0.9,2.9-1.2c1.2-0.5,2.4-1.1,3.6-1.7
		c0.2,0,0.3,0.1,0.3,0.2c0,0.1,0.1,0.4,0.1,0.8v6.5c1.5-2.3,2.9-4.2,4.3-5.5c1.4-1.3,2.9-2,4.4-2c1.2,0,2.2,0.4,2.9,1.2
		c0.8,0.8,1.1,1.8,1.1,3c0,1.1-0.3,2-0.9,2.7c-0.6,0.7-1.3,1.1-2.1,1.1c-0.9,0-1.8-0.5-2.7-1.4c-0.9-0.9-1.6-1.4-2.1-1.4
		c-0.8,0-1.8,0.8-3,2.3c-1.2,1.5-1.8,3-1.8,4.6v17.8c0,2.3,0.5,3.8,1.4,4.7c0.9,0.9,2.5,1.3,4.7,1.2v1.3h-17.4V177L271.5,177z"/>
	<path d="M294.3,177.2c1.7-0.2,2.8-0.7,3.5-1.4c0.7-0.7,1-2.3,1-4.7v-20c0-1.7-0.1-2.9-0.4-3.6c-0.4-1-1.4-1.5-2.7-1.5
		c-0.2,0-0.4,0-0.7,0c-0.2,0-0.5,0.1-0.8,0.1v-1.4c1-0.3,3.2-1.1,6.8-2.4l3.3-1.2c0.2,0,0.3,0.1,0.3,0.2c0,0.1,0.1,0.3,0.1,0.6v5.8
		c2.2-2.3,3.9-3.8,5.1-4.7c1.8-1.3,3.7-1.9,5.7-1.9c1.6,0,3.1,0.5,4.4,1.5c2.5,2,3.8,5.6,3.8,10.7v18.4c0,1.9,0.3,3.3,1,4.1
		c0.7,0.8,1.8,1.3,3.4,1.3v1.1h-15v-1.1c1.7-0.3,2.9-0.8,3.6-1.6c0.7-0.8,1-2.6,1-5.3v-16.9c0-2.3-0.4-4.1-1.1-5.6
		c-0.8-1.5-2.1-2.3-4.2-2.3c-1.4,0-2.8,0.5-4.2,1.6c-0.8,0.6-1.8,1.6-3.1,3v22.1c0,1.9,0.4,3.2,1.1,3.8c0.8,0.6,1.9,1,3.6,1v1.1
		h-15.4V177.2L294.3,177.2z"/>
	<path d="M352.2,145.2c2.5,2.6,3.7,6.2,3.7,10.9h-22.4c0.2,6.1,1.5,10.6,3.7,13.3c2.2,2.8,4.9,4.2,7.9,4.2c2.5,0,4.5-0.7,6.2-2.2
		c1.7-1.4,3.3-3.5,4.7-6.2l1.2,0.5c-1,3.3-2.8,6.4-5.4,9.3c-2.6,2.8-5.9,4.3-9.7,4.3c-4.4,0-7.8-1.9-10.3-5.6
		c-2.4-3.7-3.6-8-3.6-12.9c0-5.3,1.4-9.9,4.2-13.7c2.8-3.8,6.4-5.8,10.9-5.8C346.8,141.3,349.7,142.6,352.2,145.2L352.2,145.2z
		 M335.3,148.2c-0.8,1.4-1.3,3.2-1.6,5.4h14.9c-0.3-2.6-0.7-4.6-1.3-5.9c-1.2-2.3-3.1-3.5-5.8-3.5
		C338.8,144.2,336.7,145.5,335.3,148.2L335.3,148.2z"/>
	<path d="M358.3,177.2c2.2-0.2,3.7-0.7,4.4-1.5c0.8-0.8,1.2-2.2,1.2-4.4v-38.6c0-1.7-0.1-2.9-0.4-3.6c-0.5-1.1-1.4-1.7-2.9-1.7
		c-0.3,0-0.7,0-1.1,0.1c-0.4,0.1-0.9,0.2-1.4,0.4v-1.3c3.2-0.9,7-2.2,11.5-3.8c0.2,0,0.3,0.1,0.3,0.2c0,0.2,0.1,0.5,0.1,1v47.3
		c0,2.3,0.4,3.8,1.1,4.5c0.7,0.7,2.2,1.1,4.4,1.3v1.1h-17.1V177.2L358.3,177.2z"/>
	<path d="M376.2,177.2c2.2-0.2,3.7-0.7,4.4-1.5c0.8-0.8,1.2-2.2,1.2-4.4v-38.6c0-1.7-0.1-2.9-0.4-3.6c-0.5-1.1-1.4-1.7-2.9-1.7
		c-0.3,0-0.7,0-1.1,0.1c-0.4,0.1-0.9,0.2-1.4,0.4v-1.3c3.2-0.9,7-2.2,11.5-3.8c0.2,0,0.3,0.1,0.3,0.2c0,0.2,0.1,0.5,0.1,1v47.3
		c0,2.3,0.4,3.8,1.1,4.5c0.7,0.7,2.2,1.1,4.4,1.3v1.1h-17.1V177.2L376.2,177.2z"/>
	<path d="M413.3,156.4c-2.7,1-4.9,2.1-6.7,3.3c-3.4,2.3-5.1,5-5.1,8c0,2.4,0.7,4.2,2.1,5.3c0.9,0.7,1.9,1.1,3.1,1.1
		c1.5,0,3-0.5,4.4-1.5c1.4-1,2.1-2.2,2.1-3.7V156.4L413.3,156.4z M400.3,160.9c2.2-1.6,6.5-3.7,12.9-6.4v-3.4c0-2.7-0.2-4.6-0.7-5.6
		c-0.8-1.8-2.5-2.6-5-2.6c-1.2,0-2.3,0.3-3.4,1c-1.1,0.7-1.6,1.7-1.6,2.9c0,0.3,0.1,0.9,0.2,1.6c0.1,0.7,0.2,1.2,0.2,1.4
		c0,1.5-0.4,2.5-1.3,3.1c-0.5,0.3-1.1,0.5-1.8,0.5c-1.1,0-1.9-0.4-2.4-1.1c-0.6-0.8-0.8-1.7-0.8-2.6c0-1.8,1-3.8,3-5.8
		c2-2,5-3,8.9-3c4.6,0,7.6,1.7,9.3,5c0.9,1.8,1.3,4.5,1.3,7.9v15.8c0,1.5,0.1,2.6,0.3,3.2c0.3,1,0.9,1.5,1.9,1.5
		c0.5,0,1-0.1,1.3-0.3c0.4-0.2,1-0.6,1.8-1.3v2.1c-0.8,1-1.6,1.9-2.4,2.5c-1.3,1-2.7,1.5-4,1.5c-1.6,0-2.8-0.6-3.5-1.7
		c-0.7-1.2-1.1-2.5-1.2-4.1c-1.8,1.7-3.3,3-4.6,3.9c-2.1,1.4-4.2,2.1-6.1,2.1c-2,0-3.8-0.8-5.2-2.4c-1.5-1.6-2.2-3.6-2.2-6.1
		C395.2,166.6,396.9,163.5,400.3,160.9L400.3,160.9z M414.4,136.9h-2.9l-11.1-7.9c-0.8-0.6-1.3-1.1-1.7-1.6
		c-0.3-0.5-0.5-1.1-0.5-1.8c0-0.8,0.2-1.4,0.7-1.9c0.5-0.5,1.1-0.7,1.7-0.8c0.6,0,1.2,0.2,1.7,0.6c0.5,0.4,1,0.8,1.5,1.3
		L414.4,136.9L414.4,136.9z"/>
	<path d="M458.3,145.3c0.9,0.5,1.7,1.2,2.5,2.1v-11.5c0-1.5-0.2-2.5-0.5-3c-0.3-0.6-1-0.8-2.1-0.8c-0.3,0-0.5,0-0.7,0
		c-0.2,0-0.6,0.1-1.3,0.1V131l2.6-0.8c1-0.3,1.9-0.6,2.9-0.9c1-0.3,1.8-0.6,2.5-0.9c0.3-0.1,0.9-0.3,1.7-0.7l0.2,0.1l-0.1,3.8
		c0,1.4,0,2.8-0.1,4.3c0,1.4,0,2.9,0,4.3l-0.1,29.5c0,1.6,0.2,2.7,0.5,3.3c0.3,0.6,1.3,0.9,2.7,0.9c0.2,0,0.5,0,0.7,0
		c0.2,0,0.5-0.1,0.7-0.1v1.2c-0.1,0-1.7,0.6-4.7,1.8L461,179l-0.2-0.3v-4.4c-1.2,1.5-2.2,2.5-3.1,3.1c-1.6,1.1-3.4,1.6-5.5,1.6
		c-3.7,0-6.6-1.6-8.9-4.7c-2.3-3.2-3.4-6.9-3.4-11c0-5.2,1.4-9.7,4.1-13.5c2.7-3.8,6.1-5.6,10-5.6
		C455.5,144.1,457,144.5,458.3,145.3L458.3,145.3z M459.2,173.4c1-1.1,1.5-2.2,1.5-3.1v-15.5c0-3.1-0.8-5.3-2.3-6.6
		c-1.5-1.3-2.9-2-4.4-2c-2.7,0-4.8,1.4-6.3,4c-1.5,2.7-2.3,6-2.3,9.9c0,3.9,0.8,7.3,2.4,10.4c1.6,3,4,4.6,7.2,4.6
		C456.8,175.1,458.2,174.5,459.2,173.4L459.2,173.4z"/>
	<path d="M492.5,147.9c2.3,2.3,3.4,5.7,3.4,10h-20.5c0.2,5.6,1.3,9.7,3.4,12.2c2,2.6,4.5,3.8,7.3,3.8c2.3,0,4.2-0.7,5.7-2
		c1.5-1.3,3-3.2,4.3-5.6l1.1,0.4c-0.9,3.1-2.5,5.9-5,8.5c-2.4,2.6-5.4,3.9-8.9,3.9c-4,0-7.2-1.7-9.4-5.1c-2.2-3.4-3.3-7.4-3.3-11.8
		c0-4.8,1.3-9,3.8-12.5c2.6-3.5,5.9-5.3,10-5.3C487.5,144.4,490.2,145.6,492.5,147.9L492.5,147.9z M477,150.7
		c-0.7,1.3-1.2,2.9-1.5,4.9h13.6c-0.2-2.4-0.6-4.2-1.2-5.4c-1.1-2.1-2.8-3.2-5.3-3.2C480.2,147,478.3,148.3,477,150.7L477,150.7z"/>
	<path d="M512,177c2.4-0.3,4-0.8,4.7-1.4c0.7-0.7,1.1-2.4,1.1-5.2v-32.9c0-2.6-0.4-4.3-1.1-5.1c-0.7-0.8-2.3-1.3-4.7-1.5v-1.4h18.7
		v1.4c-2.4,0.1-4.1,0.6-4.9,1.3c-0.8,0.7-1.2,2.3-1.2,4.8v35.6c0,0.8,0.1,1.5,0.4,2c0.3,0.5,0.8,0.7,1.6,0.9c0.5,0.1,1,0.1,1.5,0.1
		c0.6,0,1.6,0,3.1,0c5.9,0,9.8-0.5,11.9-1.6c2.1-1.1,4.1-3.9,6-8.3h1.7l-3.2,12.8H512V177L512,177z"/>
	<path d="M551,177.3c2-0.2,3.4-0.7,4.1-1.3c0.7-0.7,1.1-2,1.1-4v-35.3c0-1.6-0.1-2.7-0.4-3.3c-0.4-1-1.3-1.5-2.6-1.5
		c-0.3,0-0.6,0-1,0.1c-0.3,0.1-0.8,0.2-1.3,0.3V131c2.9-0.9,6.4-2,10.5-3.5c0.2,0,0.2,0.1,0.3,0.2c0,0.1,0.1,0.5,0.1,0.9v43.4
		c0,2.1,0.3,3.5,1,4.1c0.6,0.6,2,1,4,1.2v1H551V177.3L551,177.3z"/>
	<path d="M571.8,149.4c2.7-3.3,6.2-5,10.5-5c4.3,0,7.8,1.6,10.6,4.7c2.8,3.1,4.2,7.3,4.2,12.5c0,4.8-1.4,9-4.1,12.5
		c-2.7,3.5-6.2,5.3-10.5,5.3c-4.1,0-7.6-1.7-10.5-5.1c-2.9-3.4-4.3-7.7-4.3-12.8C567.7,156.7,569.1,152.7,571.8,149.4L571.8,149.4z
		 M577,148.4c-2.2,2.2-3.2,6-3.2,11.4c0,4.3,0.9,8.3,2.6,12c1.7,3.7,4.2,5.6,7.2,5.6c2.4,0,4.3-1.2,5.6-3.7c1.3-2.5,2-5.7,2-9.8
		c0-4.2-0.8-8.1-2.5-11.8c-1.7-3.7-4.1-5.5-7.2-5.5C579.7,146.6,578.2,147.2,577,148.4L577,148.4z"/>
	<path d="M597.3,132.3v-1.2c2.5-0.6,4.7-1.3,6.6-2.1c2-0.8,3-1.2,3.2-1.2c0,0.1,0.1,0.3,0.1,0.4v22c0.6-1.2,1.4-2.3,2.5-3.3
		c2-1.8,4.3-2.7,6.8-2.7c3.2,0,5.9,1.5,8.1,4.5s3.4,6.9,3.4,11.6c0,5.1-1.5,9.5-4.4,13.1c-2.9,3.6-6.7,5.5-11.5,5.5
		c-2.4,0-4.7-0.5-7-1.6c-2.3-1.1-3.5-2.1-3.5-3.2V136c0-1.4-0.2-2.4-0.5-3c-0.3-0.6-1.1-0.9-2.4-0.9L597.3,132.3L597.3,132.3z
		 M609.5,175.7c1.5,0.5,2.8,0.8,3.9,0.8c3,0,5.2-1.3,6.7-3.8c1.5-2.5,2.2-5.6,2.2-9.2c0-3.6-0.7-6.9-2-9.9c-1.4-3.1-3.5-4.6-6.6-4.6
		c-1.5,0-3,0.5-4.5,1.6c-1.5,1-2.2,2.4-2.2,4V173C607.2,174.3,608.1,175.2,609.5,175.7L609.5,175.7z"/>
	<path d="M628.4,177.1c2-0.2,3.3-0.6,3.9-1.2c0.6-0.6,1-1.9,1-3.8v-16.3c0-2.4-0.2-4.1-0.6-5.1c-0.4-1-1.1-1.6-2.2-1.6
		c-0.2,0-0.5,0-0.9,0.1c-0.3,0-0.7,0.1-1.1,0.2v-1.2c1.2-0.5,2.5-1,3.8-1.5c1.3-0.5,2.2-0.9,2.7-1.1c1.1-0.5,2.2-1,3.3-1.6
		c0.2,0,0.2,0.1,0.3,0.2c0,0.1,0.1,0.4,0.1,0.8v5.9c1.4-2.1,2.7-3.8,4-5c1.3-1.2,2.6-1.8,4-1.8c1.1,0,2,0.4,2.7,1.1
		c0.7,0.7,1,1.6,1,2.7c0,1-0.3,1.8-0.8,2.5c-0.5,0.7-1.2,1-2,1c-0.8,0-1.6-0.4-2.5-1.3c-0.8-0.8-1.5-1.3-1.9-1.3
		c-0.8,0-1.7,0.7-2.8,2.1c-1.1,1.4-1.6,2.7-1.6,4.2v16.3c0,2.1,0.4,3.5,1.3,4.3c0.9,0.8,2.3,1.2,4.3,1.1v1.2h-15.9V177.1
		L628.4,177.1z"/>
	<path d="M671.3,147.9c2.3,2.3,3.4,5.7,3.4,10h-20.5c0.2,5.6,1.3,9.7,3.4,12.2c2,2.6,4.5,3.8,7.3,3.8c2.3,0,4.2-0.7,5.7-2
		c1.5-1.3,3-3.2,4.3-5.6l1.1,0.4c-0.9,3.1-2.5,5.9-5,8.5c-2.4,2.6-5.4,3.9-8.9,3.9c-4,0-7.2-1.7-9.4-5.1c-2.2-3.4-3.3-7.4-3.3-11.8
		c0-4.8,1.3-9,3.8-12.5c2.6-3.5,5.9-5.3,10-5.3C666.3,144.4,669,145.6,671.3,147.9L671.3,147.9z M655.8,150.7
		c-0.7,1.3-1.2,2.9-1.5,4.9H668c-0.2-2.4-0.6-4.2-1.2-5.4c-1.1-2.1-2.8-3.2-5.3-3.2C659,147,657.1,148.3,655.8,150.7L655.8,150.7z"
		/>
	<path d="M685,189.2c2,0.8,4.4,1.2,7,1.2c3.6,0,6.5-0.7,8.7-2.1c2.2-1.4,3.4-3.1,3.4-5.1c0-1.6-0.9-2.7-2.7-3.2
		c-1.1-0.3-3.2-0.5-6.4-0.5c-0.8,0-1.6-0.1-2.5-0.1c-0.9,0-1.7-0.1-2.4-0.1c-0.5,0-1.2-0.1-2.3-0.3c-1.1-0.2-1.8-0.3-2.4-0.4
		c-0.3,0-0.9,0.8-1.9,2.3c-1,1.5-1.5,3-1.5,4.3C682,187,683,188.4,685,189.2L685,189.2z M681.6,162.3c-1.1-1.9-1.6-3.9-1.6-6.3
		c0-2.8,1-5.5,3-8c2-2.5,4.8-3.8,8.5-3.8c1.6,0,3.3,0.4,5.2,1.3c1.9,0.8,3.7,1.2,5.5,1.2c0.5,0,1.1,0,2,0c0.9,0,1.6-0.1,2-0.1h0.4
		v2.9H701c0.4,1,0.7,1.9,0.9,2.6c0.4,1.4,0.5,2.7,0.5,4c0,2.7-1,5.3-3.1,7.6c-2,2.3-4.8,3.4-8.2,3.4c-0.5,0-1.5-0.1-2.9-0.3
		c-0.6,0-1.5,0.6-2.5,1.8c-1,1.2-1.5,2.1-1.5,2.9c0,0.8,0.8,1.3,2.3,1.7c1,0.2,2.1,0.4,3.3,0.4c5.5,0,9.3,0.4,11.3,1
		c3.2,1.1,4.9,3.6,4.9,7.3c0,3.8-1.9,6.8-5.7,9.1c-3.8,2.3-7.6,3.4-11.5,3.4c-3.5,0-6.3-0.8-8.4-2.4c-2.1-1.6-3.1-3.3-3.1-5
		c0-0.9,0.3-1.7,0.8-2.6c0.6-0.8,1.6-2.1,3.3-3.7l2.1-2.1l0.4-0.4c-1-0.4-1.7-0.9-2.2-1.3c-0.9-0.7-1.3-1.6-1.3-2.6
		c0-0.9,0.4-1.9,1.1-2.9c0.8-1.1,2.3-2.8,4.8-5.2C684.2,165.4,682.7,164.2,681.6,162.3L681.6,162.3z M695.3,164.4
		c1.3-1.2,1.9-3.2,1.9-6c0-2.3-0.5-4.9-1.6-7.7c-1-2.9-2.8-4.3-5.2-4.3c-2.1,0-3.6,1.1-4.4,3.4c-0.4,1.2-0.6,2.6-0.6,4.4
		c0,2.9,0.6,5.6,1.9,7.9c1.3,2.3,2.9,3.5,4.9,3.5C693.5,165.4,694.5,165.1,695.3,164.4L695.3,164.4z"/>
	<path d="M725.5,158.3c-2.5,0.9-4.5,1.9-6.1,3c-3.1,2.1-4.6,4.6-4.6,7.3c0,2.2,0.6,3.8,1.9,4.8c0.8,0.7,1.8,1,2.8,1
		c1.4,0,2.8-0.4,4.1-1.3c1.3-0.9,2-2,2-3.4V158.3L725.5,158.3z M713.7,162.4c2-1.4,5.9-3.4,11.8-5.9v-3.1c0-2.5-0.2-4.2-0.6-5.1
		c-0.7-1.6-2.2-2.4-4.5-2.4c-1.1,0-2.1,0.3-3.1,0.9c-1,0.7-1.5,1.5-1.5,2.7c0,0.3,0.1,0.8,0.2,1.5c0.1,0.7,0.2,1.1,0.2,1.3
		c0,1.4-0.4,2.3-1.2,2.8c-0.5,0.3-1,0.5-1.6,0.5c-1,0-1.7-0.3-2.2-1c-0.5-0.7-0.8-1.5-0.8-2.4c0-1.7,0.9-3.4,2.8-5.3
		c1.9-1.9,4.6-2.8,8.2-2.8c4.2,0,7,1.5,8.5,4.6c0.8,1.7,1.2,4.1,1.2,7.3v14.5c0,1.4,0.1,2.4,0.3,2.9c0.3,0.9,0.9,1.4,1.7,1.4
		c0.5,0,0.9-0.1,1.2-0.3c0.3-0.2,0.9-0.6,1.7-1.2v1.9c-0.7,0.9-1.4,1.7-2.2,2.3c-1.2,0.9-2.4,1.4-3.7,1.4c-1.5,0-2.5-0.5-3.2-1.6
		c-0.6-1.1-1-2.3-1.1-3.8c-1.6,1.6-3,2.8-4.2,3.5c-2,1.3-3.8,2-5.6,2c-1.9,0-3.5-0.7-4.8-2.2c-1.4-1.5-2-3.3-2-5.6
		C709,167.6,710.6,164.7,713.7,162.4L713.7,162.4z"/>
	<path d="M750.7,145v2.6h-6.6l-0.1,20.8c0,1.8,0.1,3.2,0.4,4.2c0.5,1.7,1.5,2.5,3,2.5c0.8,0,1.4-0.2,2-0.6c0.6-0.4,1.2-1.1,2-2
		l0.8,0.8l-0.7,1.1c-1.1,1.7-2.3,2.9-3.6,3.6c-1.2,0.7-2.5,1-3.6,1c-2.5,0-4.3-1.3-5.2-3.8c-0.5-1.4-0.7-3.3-0.7-5.7v-21.9h-3.5
		c-0.1-0.1-0.2-0.1-0.3-0.2c0-0.1-0.1-0.2-0.1-0.3c0-0.2,0-0.4,0.1-0.5c0.1-0.1,0.4-0.5,0.9-0.9c1.5-1.4,2.5-2.5,3.2-3.3
		c0.7-0.9,2.2-3.1,4.6-6.8c0.3,0,0.4,0,0.5,0.1c0.1,0,0.1,0.2,0.1,0.5v8.9H750.7L750.7,145z"/>
	<path d="M220.4,82.7l-7.6-20.1l-7.5,20.1H220.4L220.4,82.7z M192.3,101.5v-1.3c1.7-0.2,2.9-0.9,3.8-2.1c0.9-1.2,2.3-4.5,4.3-9.9
		L214,52.2h1.3l16.3,41.5c1.1,2.8,1.9,4.5,2.6,5.1c0.7,0.6,1.8,1.1,3.3,1.3v1.3h-16.6v-1.3c1.9-0.2,3.1-0.4,3.7-0.7
		c0.6-0.3,0.8-1,0.8-2c0-0.4-0.1-1-0.3-1.9c-0.2-0.9-0.5-1.9-0.9-2.9l-2.7-7h-17.1c-1.7,4.8-2.7,7.7-3.1,8.8c-0.3,1-0.5,1.9-0.5,2.5
		c0,1.2,0.4,2.1,1.3,2.6c0.6,0.3,1.6,0.5,3.1,0.6v1.3H192.3L192.3,101.5z"/>
	<path d="M244.6,52.7c0.6-0.7,1.4-1.1,2.4-1.1c0.9,0,1.7,0.4,2.3,1.1c0.7,0.7,1,1.6,1,2.6c0,1-0.3,1.9-1,2.6
		c-0.6,0.7-1.4,1.1-2.3,1.1c-0.9,0-1.7-0.4-2.4-1.1c-0.6-0.7-1-1.6-1-2.6C243.7,54.4,244,53.5,244.6,52.7L244.6,52.7z M238.6,112.8
		c1.1,1.5,2,2.3,2.8,2.3c1.3,0,2.2-0.9,2.7-2.6c0.3-1,0.4-2.8,0.4-5.3c0-0.9,0-3,0-6.5V77.2c0-1.6-0.1-2.8-0.4-3.6
		c-0.3-0.8-0.9-1.2-1.9-1.2c-0.3,0-0.7,0.1-1.2,0.2c-0.5,0.1-1,0.3-1.5,0.4V72l2.7-1c0.7-0.2,1.5-0.6,2.6-1c1.1-0.4,2.1-0.8,3-1.3
		l1.9-0.8c0.1,0.1,0.1,0.3,0.1,0.5v33c0,4.1-0.5,7.3-1.4,9.6c-1.7,4.2-5,6.4-9.8,6.4c-1.6,0-3-0.4-4.2-1.1c-1.2-0.7-1.8-1.7-1.8-2.9
		c0-0.8,0.2-1.5,0.7-2.1c0.5-0.6,1.1-0.9,1.9-0.9C236.4,110.6,237.5,111.3,238.6,112.8L238.6,112.8z"/>
	<path d="M262.8,68.4v22.9c0,1.6,0.2,2.9,0.6,3.9c0.8,1.8,2.2,2.7,4.3,2.7c1.4,0,2.9-0.5,4.2-1.6c0.8-0.6,1.6-1.4,2.4-2.5V74.2
		c0-1.8-0.3-3-1-3.6c-0.6-0.6-1.9-0.9-3.8-1v-1.2h10.3v25.2c0,1.6,0.3,2.7,0.8,3.4c0.5,0.6,1.6,0.9,3.3,0.8v1
		c-1.2,0.4-2,0.6-2.6,0.8c-0.6,0.2-1.5,0.5-2.8,1c-0.6,0.2-1.8,0.7-3.6,1.5c-0.1,0-0.2-0.1-0.2-0.2c0-0.1,0-0.2,0-0.4v-5.8
		c-1.4,1.9-2.8,3.4-4,4.3c-1.8,1.4-3.7,2.1-5.7,2.1c-1.8,0-3.6-0.7-5.2-2.2c-1.7-1.5-2.5-3.9-2.5-7.3V74.1c0-1.9-0.4-3.2-1.1-3.8
		c-0.5-0.4-1.5-0.7-3-0.9v-1H262.8L262.8,68.4z"/>
	<path d="M284.5,100.5c1.5-0.2,2.6-0.6,3.2-1.3c0.6-0.6,0.9-2.1,0.9-4.3V76.9c0-1.5-0.1-2.6-0.4-3.2c-0.4-0.9-1.2-1.4-2.5-1.4
		c-0.2,0-0.4,0-0.6,0c-0.2,0-0.4,0.1-0.7,0.1v-1.3c0.9-0.3,2.9-1,6.2-2.2l3-1.1c0.1,0,0.2,0.1,0.3,0.2c0,0.1,0.1,0.3,0.1,0.5v5.3
		c2-2,3.5-3.5,4.6-4.2c1.7-1.2,3.4-1.7,5.2-1.8c1.4,0,2.8,0.5,4,1.4c2.3,1.8,3.4,5,3.4,9.7v16.7c0,1.7,0.3,3,0.9,3.7
		c0.6,0.8,1.6,1.2,3.1,1.2v1h-13.6v-1c1.6-0.2,2.6-0.7,3.3-1.4c0.6-0.7,0.9-2.3,0.9-4.8V79.1c0-2-0.3-3.7-1-5.1
		c-0.7-1.4-1.9-2-3.8-2c-1.3,0-2.5,0.5-3.8,1.4c-0.7,0.5-1.7,1.5-2.8,2.7v20c0,1.7,0.3,2.9,1,3.5c0.7,0.6,1.8,0.9,3.2,0.9v1h-13.9
		V100.5L284.5,100.5z"/>
	<path d="M330.6,68.6v2.6h-6.5l-0.1,20.6c0,1.8,0.1,3.2,0.4,4.1c0.5,1.6,1.5,2.5,3,2.5c0.8,0,1.4-0.2,2-0.6c0.6-0.4,1.2-1,1.9-1.9
		l0.8,0.8l-0.7,1.1c-1.1,1.7-2.3,2.8-3.5,3.5c-1.2,0.7-2.4,1-3.6,1c-2.5,0-4.2-1.3-5.1-3.8c-0.5-1.4-0.7-3.2-0.7-5.6V71.1h-3.5
		c-0.1-0.1-0.2-0.1-0.3-0.2c0-0.1-0.1-0.2-0.1-0.3c0-0.2,0-0.4,0.1-0.5c0.1-0.1,0.4-0.5,0.9-0.9c1.5-1.4,2.5-2.5,3.2-3.3
		c0.7-0.9,2.2-3.1,4.6-6.7c0.3,0,0.4,0,0.5,0.1c0.1,0,0.1,0.2,0.1,0.5v8.8H330.6L330.6,68.6z"/>
	<path d="M348.9,81.7c-2.4,0.9-4.5,1.9-6.1,3c-3.1,2.1-4.6,4.5-4.6,7.2c0,2.2,0.6,3.8,1.9,4.8c0.8,0.7,1.8,1,2.8,1
		c1.4,0,2.7-0.4,4-1.3c1.3-0.9,1.9-2,1.9-3.4V81.7L348.9,81.7z M337.2,85.7c2-1.4,5.9-3.4,11.7-5.8v-3c0-2.4-0.2-4.1-0.6-5.1
		c-0.7-1.6-2.2-2.4-4.5-2.4c-1.1,0-2.1,0.3-3.1,0.9c-1,0.6-1.5,1.5-1.5,2.6c0,0.3,0.1,0.8,0.2,1.5c0.1,0.7,0.2,1.1,0.2,1.3
		c0,1.3-0.4,2.3-1.2,2.8c-0.4,0.3-1,0.5-1.6,0.5c-1,0-1.7-0.3-2.2-1c-0.5-0.7-0.8-1.5-0.8-2.4c0-1.7,0.9-3.4,2.7-5.2
		c1.8-1.8,4.5-2.8,8.1-2.8c4.1,0,6.9,1.5,8.4,4.5c0.8,1.6,1.2,4,1.2,7.2v14.3c0,1.4,0.1,2.3,0.3,2.9c0.3,0.9,0.8,1.4,1.7,1.4
		c0.5,0,0.9-0.1,1.2-0.3c0.3-0.2,0.9-0.6,1.7-1.2v1.9c-0.7,0.9-1.4,1.7-2.2,2.3c-1.2,0.9-2.4,1.4-3.6,1.4c-1.4,0-2.5-0.5-3.2-1.6
		c-0.6-1-1-2.3-1.1-3.8c-1.6,1.6-3,2.7-4.1,3.5c-1.9,1.3-3.8,1.9-5.5,1.9c-1.8,0-3.4-0.7-4.8-2.1c-1.3-1.5-2-3.3-2-5.5
		C332.6,90.9,334.1,88.1,337.2,85.7L337.2,85.7z"/>
	<path d="M358.3,100.6c1.7-0.2,2.8-0.5,3.3-0.9c0.8-0.7,1.3-2.1,1.3-4.1V77c0-1.8-0.2-2.9-0.6-3.5c-0.4-0.5-1.1-0.8-2-0.8
		c-0.4,0-0.8,0-1,0.1c-0.2,0-0.5,0.1-0.8,0.3v-1.3l2.3-0.9c0.8-0.3,2.2-0.9,4.1-1.7c1.9-0.8,2.9-1.2,3-1.2c0.1,0,0.2,0.1,0.2,0.2
		c0,0.1,0,0.3,0,0.7v4.8c2.1-2.1,3.9-3.6,5.5-4.4c1.5-0.8,3.1-1.2,4.7-1.3c2.2,0,3.9,0.8,5.2,2.5c0.7,0.9,1.2,2.1,1.7,3.7
		c1.6-1.8,2.9-3.1,4.1-4c2-1.5,4.1-2.2,6.2-2.2c3.4,0,5.7,1.6,6.9,4.7c0.7,1.8,1,4.5,1,8.4v14.8c0,1.7,0.3,2.8,1,3.5
		c0.7,0.6,1.9,1,3.6,1.2v0.9h-14.4v-1c1.8-0.2,3.1-0.6,3.6-1.3c0.6-0.6,0.9-2,0.9-3.9V79.9c0-2.3-0.2-4-0.7-5.1
		c-0.8-2-2.3-2.9-4.6-2.9c-1.4,0-2.8,0.5-4.1,1.5c-0.8,0.6-1.8,1.5-2.9,2.9v18.3c0,1.9,0.3,3.4,0.9,4.4c0.6,1,1.9,1.5,3.9,1.6v0.9
		h-14.6v-0.9c2-0.3,3.3-0.8,3.9-1.6c0.6-0.8,0.8-2.8,0.8-6V83c0-3.7-0.2-6.2-0.6-7.6c-0.7-2.3-2.2-3.5-4.5-3.5
		c-1.3,0-2.6,0.4-3.8,1.2c-1.3,0.8-2.4,1.8-3.3,3.1v19.5c0,1.8,0.3,3.1,0.8,3.8c0.6,0.7,1.8,1,3.7,1.1v0.9h-14.5V100.6L358.3,100.6z
		"/>
	<path d="M428.9,71.5c2.3,2.3,3.4,5.6,3.4,9.9H412c0.2,5.5,1.3,9.6,3.3,12.1c2,2.5,4.4,3.8,7.2,3.8c2.2,0,4.1-0.7,5.6-2
		c1.5-1.3,2.9-3.2,4.2-5.6l1.1,0.4c-0.9,3-2.5,5.8-4.9,8.4c-2.4,2.6-5.3,3.9-8.8,3.9c-4,0-7.1-1.7-9.3-5.1
		c-2.2-3.4-3.3-7.3-3.3-11.7c0-4.8,1.3-8.9,3.8-12.4c2.5-3.5,5.8-5.2,9.9-5.2C424,68,426.6,69.2,428.9,71.5L428.9,71.5z M413.6,74.2
		c-0.7,1.3-1.2,2.9-1.5,4.9h13.5c-0.2-2.4-0.6-4.2-1.2-5.3c-1-2.1-2.8-3.1-5.2-3.1C416.7,70.6,414.9,71.8,413.6,74.2L413.6,74.2z"/>
	<path d="M434.2,100.5c1.5-0.2,2.6-0.6,3.2-1.3c0.6-0.6,0.9-2.1,0.9-4.3V76.9c0-1.5-0.1-2.6-0.4-3.2c-0.4-0.9-1.2-1.4-2.5-1.4
		c-0.2,0-0.4,0-0.6,0c-0.2,0-0.4,0.1-0.7,0.1v-1.3c0.9-0.3,2.9-1,6.2-2.2l3-1.1c0.1,0,0.2,0.1,0.3,0.2c0,0.1,0.1,0.3,0.1,0.5v5.3
		c2-2,3.5-3.5,4.6-4.2c1.7-1.2,3.4-1.7,5.2-1.8c1.4,0,2.8,0.5,4,1.4c2.3,1.8,3.4,5,3.4,9.7v16.7c0,1.7,0.3,3,0.9,3.7
		c0.6,0.8,1.6,1.2,3.1,1.2v1h-13.6v-1c1.6-0.2,2.6-0.7,3.3-1.4c0.6-0.7,0.9-2.3,0.9-4.8V79.1c0-2-0.3-3.7-1-5.1
		c-0.7-1.4-1.9-2-3.8-2c-1.3,0-2.5,0.5-3.8,1.4c-0.7,0.5-1.7,1.5-2.8,2.7v20c0,1.7,0.3,2.9,1,3.5c0.7,0.6,1.8,0.9,3.2,0.9v1h-13.9
		V100.5L434.2,100.5z"/>
	<path d="M480.4,68.6v2.6h-6.5l-0.1,20.6c0,1.8,0.1,3.2,0.4,4.1c0.5,1.6,1.5,2.5,3,2.5c0.8,0,1.4-0.2,2-0.6c0.6-0.4,1.2-1,1.9-1.9
		l0.8,0.8l-0.7,1.1c-1.1,1.7-2.3,2.8-3.5,3.5c-1.2,0.7-2.4,1-3.6,1c-2.5,0-4.2-1.3-5.1-3.8c-0.5-1.4-0.7-3.2-0.7-5.6V71.1h-3.5
		c-0.1-0.1-0.2-0.1-0.3-0.2c0-0.1-0.1-0.2-0.1-0.3c0-0.2,0-0.4,0.1-0.5c0.1-0.1,0.4-0.5,0.9-0.9c1.5-1.4,2.5-2.5,3.2-3.3
		c0.7-0.9,2.2-3.1,4.6-6.7c0.3,0,0.4,0,0.5,0.1c0.1,0,0.1,0.2,0.1,0.5v8.8H480.4L480.4,68.6z"/>
	<path d="M514,68.9c0.8,0.5,1.7,1.2,2.5,2.1V59.6c0-1.5-0.2-2.5-0.4-3c-0.3-0.5-1-0.8-2-0.8c-0.3,0-0.5,0-0.7,0
		c-0.2,0-0.6,0.1-1.3,0.1v-1.2l2.6-0.8c1-0.3,1.9-0.6,2.9-0.9c1-0.3,1.8-0.6,2.5-0.9c0.3-0.1,0.9-0.3,1.7-0.7l0.2,0.1l-0.1,3.8
		c0,1.4,0,2.8-0.1,4.2c0,1.4,0,2.8,0,4.3L521.7,93c0,1.5,0.2,2.6,0.5,3.3c0.3,0.6,1.2,0.9,2.7,0.9c0.2,0,0.5,0,0.7,0
		c0.2,0,0.5-0.1,0.7-0.1v1.2c-0.1,0-1.7,0.6-4.6,1.8l-5,2.1l-0.2-0.3v-4.4c-1.2,1.5-2.2,2.5-3.1,3.1c-1.6,1.1-3.3,1.6-5.4,1.6
		c-3.6,0-6.5-1.6-8.8-4.7c-2.2-3.1-3.3-6.8-3.3-10.9c0-5.2,1.3-9.6,4-13.3c2.7-3.7,6-5.6,9.9-5.6C511.3,67.7,512.7,68.1,514,68.9
		L514,68.9z M515,96.7c1-1.1,1.5-2.1,1.5-3.1V78.2c0-3.1-0.7-5.3-2.2-6.5c-1.5-1.3-2.9-1.9-4.3-1.9c-2.7,0-4.8,1.3-6.2,4
		c-1.5,2.6-2.2,5.9-2.2,9.8c0,3.8,0.8,7.3,2.4,10.3c1.6,3,4,4.5,7.1,4.5C512.6,98.3,513.9,97.8,515,96.7L515,96.7z"/>
	<path d="M547.8,71.5c2.3,2.3,3.4,5.6,3.4,9.9h-20.2c0.2,5.5,1.3,9.6,3.3,12.1c2,2.5,4.4,3.8,7.2,3.8c2.2,0,4.1-0.7,5.6-2
		c1.5-1.3,2.9-3.2,4.2-5.6l1.1,0.4c-0.9,3-2.5,5.8-4.9,8.4c-2.4,2.6-5.3,3.9-8.8,3.9c-4,0-7.1-1.7-9.3-5.1
		c-2.2-3.4-3.3-7.3-3.3-11.7c0-4.8,1.3-8.9,3.8-12.4c2.5-3.5,5.8-5.2,9.9-5.2C542.9,68,545.5,69.2,547.8,71.5L547.8,71.5z
		 M532.5,74.2c-0.7,1.3-1.2,2.9-1.5,4.9h13.5c-0.2-2.4-0.6-4.2-1.2-5.3c-1-2.1-2.8-3.1-5.2-3.1C535.7,70.6,533.8,71.8,532.5,74.2
		L532.5,74.2z"/>
</g>
<path d="M29.7,45.7c0,0,19.9-10.9,57.6-10.9c37.7,0,56,11.7,56,11.7L137,58.9c0,0-1.9-0.7-5.4-1.6c-0.7-0.2,0.5-6.5-1-7
	c-1.6-0.4-3.2,5.9-4.3,5.6c-3.7-0.9-8.2-1.8-13.5-2.6c-0.8-0.1-0.2-6.2-2.1-6.3c-1.9-0.2-1.8,5.8-2.6,5.7
	c-5.8-0.7-12.2-1.2-19.2-1.3c-0.8,0-0.2-6.4-2.1-6.6c-2.1-0.2-2,6.6-2.8,6.6c-6.3,0.1-12.1,0.4-17.3,0.8c-0.8,0.1-0.5-6.6-2.8-6.6
	c-1.7-0.2-0.8,6.9-1.4,7c-5.8,0.6-10.8,1.4-14.9,2.2c-0.9,0.2-1.7-6.2-3.9-5.7c-2.1,0.3-0.4,6.6-1.2,6.8c-4.9,1.1-7.6,2-7.6,2
	L29.7,45.7L29.7,45.7z"/>
<path d="M37.1,59.9c0,0,15.4-6.9,49.1-6.9c34.4,0,48.4,7.9,48.4,7.9s-24.5,6.4-48.4,6.4C62.3,67.3,37.1,59.9,37.1,59.9L37.1,59.9z"
	/>
<path d="M136.7,33.8c0-1.3,1.1-2.4,2.4-2.4c1.3,0,2.4,1.1,2.4,2.4c0,1.3-1.1,2.4-2.4,2.4C137.7,36.2,136.7,35.1,136.7,33.8
	L136.7,33.8z M108.1,27.6c0-1.3,1.1-2.4,2.4-2.4c1.3,0,2.4,1.1,2.4,2.4c0,1.3-1.1,2.4-2.4,2.4C109.2,30,108.1,28.9,108.1,27.6
	L108.1,27.6z M85,25.5c0-1.3,1.1-2.4,2.4-2.4c1.3,0,2.4,1.1,2.4,2.4c0,1.3-1.1,2.4-2.4,2.4C86.1,27.9,85,26.8,85,25.5L85,25.5z
	 M59.7,26.5c0-1.3,1.1-2.4,2.4-2.4c1.3,0,2.4,1.1,2.4,2.4c0,1.3-1.1,2.4-2.4,2.4C60.8,29,59.7,27.9,59.7,26.5L59.7,26.5z M32.1,31.9
	c0-1.3,1.1-2.4,2.4-2.4c1.3,0,2.4,1.1,2.4,2.4c0,1.3-1.1,2.4-2.4,2.4C33.2,34.3,32.1,33.2,32.1,31.9L32.1,31.9z M17.1,17.9
	l11.4,25.4c0,0,16.6-10.7,57.6-10.7c41,0,58.4,11.6,58.4,11.6L156.5,20l-15.9-6l-5.7,9.8l-1.4-0.5l-2.4-6.9l-4.5,4.5l-2.2-0.7
	L127,11l-17.5-4l-3.1,9.2l-1.9-0.5l-2.2-5L99,15.1L97.1,15l-0.7-9.3H79.6l-0.2,9.5l-1.7,0.2l-3.8-5l-2.1,5.5L69.9,16L66,6L49.2,9.3
	l2.1,9.9l-2.6,0.7l-5.2-5.2l-2.1,6.2l-2.2,0.5l-5-9.7L17.1,17.9L17.1,17.9z"/>
<polygon class="st0" points="4.6,158.8 86.2,240.4 169,157.6 87.4,76 4.6,158.8 "/>
<polygon class="st1" points="4.6,158.8 86.2,240.4 169,157.6 87.4,76 4.6,158.8 "/>
<polygon class="st0" points="13.8,157.6 87.4,84 159.9,156.5 86.3,230.1 13.8,157.6 "/>
<g>
	<defs>
		<polygon id="SVGID_1_" points="13.8,157.6 87.4,84 159.9,156.5 86.3,230.1 13.8,157.6 		"/>
	</defs>
	<clipPath id="SVGID_2_">
		<use xlink:href="#SVGID_1_"  style="overflow:visible;"/>
	</clipPath>
	<polygon class="st2" points="26.7,121.5 26.7,191.4 47.7,191.4 47.7,121.5 26.7,121.5 	"/>
	<polygon class="st2" points="60.7,89.8 60.7,230.4 80.3,230.4 80.3,89.8 60.7,89.8 	"/>
	<polygon class="st2" points="94.4,89.8 94.4,230.4 114,230.4 114,89.8 94.4,89.8 	"/>
	<polygon class="st2" points="126.6,121.5 126.6,191.4 147.6,191.4 147.6,121.5 126.6,121.5 	"/>
</g>
<path class="st0" d="M98.1,145.3c0,0,15.9-38.7-1.4-38.7c-6.3,0-7.4,4.8-7.4,4.8s2.9,0.7,3.3,2.2c0.4,1.7-2.8,3.6-2.8,3.6
	s2.8,1.4,2.8,3c0,1.6-2.8,3-2.8,3l0.3,3.7c0,0,1.2,5.2,2.5,8.4C94.2,139.4,98.1,145.3,98.1,145.3L98.1,145.3z M76.6,145.1
	c0,0-16.6-39.2,1.4-39.2c6.3,0,7.4,5.2,7.4,5.2s-2.9,0.7-3.3,2.2c-0.4,1.7,2.8,3.6,2.8,3.6s-2.8,1.4-2.8,3s2.8,3,2.8,3l-0.3,3.7
	c0,0-1.1,5-2.7,8.5C80.3,138.7,76.6,145.1,76.6,145.1L76.6,145.1z M81.3,171.4c0,0,1.9,1,5.5,1.2c3.6,0.3,5.8,0.3,5.8,0.3
	s-1-7.5-0.3-12.2c0.7-4.8,3.9-11.8,3.9-11.8s-3.9-5.5-5.9-9.4c-1.5-3-2.2-4.7-3.2-7.9c-1.7,4-2.7,6.2-4.5,10.1
	c-1.4,3-3.9,7.5-3.9,7.5s2,6.3,2.5,10.5C81.9,164.2,81.3,171.4,81.3,171.4L81.3,171.4z M95.4,172.6c-1-4.7-0.7-7.6,0.1-12.3
	c0.6-3.3,2.4-8.1,2.4-8.1s3.2,5,5,8.3c0.9,1.7,3,4.3,3.8,6c0,0-0.9,0.6-1.2,1.2c-0.3,0.6-0.2,1.8-0.2,1.8c-1.1,0.8-2.7,1.4-3.9,1.8
	C99.8,171.9,97.8,172.5,95.4,172.6L95.4,172.6z M77.7,172.8c0,0,1.4-10.1,0.3-14.8c-0.6-2.5-2.2-6.3-2.2-6.3s-6.6,11-6.6,13.2
	C69.2,167,77.7,172.8,77.7,172.8L77.7,172.8z M68.3,158.7l6.4-10.3c0,0-22.5-45.5,4.3-45.5c5.5,0,7.9,4.9,7.9,4.9s1.7-5.1,11.3-4.5
	c23.2,1.7,1.4,45.3,1.4,45.3s6.3,11.5,9.6,16.5l2,8.9l-47.3-2.5L68.3,158.7L68.3,158.7z"/>
<path class="st3" d="M98.1,145.3c0,0,15.9-38.7-1.4-38.7c-6.3,0-7.4,4.8-7.4,4.8s2.9,0.7,3.3,2.2c0.4,1.7-2.8,3.6-2.8,3.6
	s2.8,1.4,2.8,3c0,1.6-2.8,3-2.8,3l0.3,3.7c0,0,1.2,5.2,2.5,8.4C94.2,139.4,98.1,145.3,98.1,145.3L98.1,145.3z M76.6,145.1
	c0,0-16.6-39.2,1.4-39.2c6.3,0,7.4,5.2,7.4,5.2s-2.9,0.7-3.3,2.2c-0.4,1.7,2.8,3.6,2.8,3.6s-2.8,1.4-2.8,3s2.8,3,2.8,3l-0.3,3.7
	c0,0-1.1,5-2.7,8.5C80.3,138.7,76.6,145.1,76.6,145.1L76.6,145.1z M81.3,171.4c0,0,1.9,1,5.5,1.2c3.6,0.3,5.8,0.3,5.8,0.3
	s-1-7.5-0.3-12.2c0.7-4.8,3.9-11.8,3.9-11.8s-3.9-5.5-5.9-9.4c-1.5-3-2.2-4.7-3.2-7.9c-1.7,4-2.7,6.2-4.5,10.1
	c-1.4,3-3.9,7.5-3.9,7.5s2,6.3,2.5,10.5C81.9,164.2,81.3,171.4,81.3,171.4L81.3,171.4z M95.4,172.6c-1-4.7-0.7-7.6,0.1-12.3
	c0.6-3.3,2.4-8.1,2.4-8.1s3.2,5,5,8.3c0.9,1.7,3,4.3,3.8,6c0,0-0.9,0.6-1.2,1.2c-0.3,0.6-0.2,1.8-0.2,1.8c-1.1,0.8-2.7,1.4-3.9,1.8
	C99.8,171.9,97.8,172.5,95.4,172.6L95.4,172.6z M77.7,172.8c0,0,1.4-10.1,0.3-14.8c-0.6-2.5-2.2-6.3-2.2-6.3s-6.6,11-6.6,13.2
	C69.2,167,77.7,172.8,77.7,172.8L77.7,172.8z M68.3,158.7l6.4-10.3c0,0-22.5-45.5,4.3-45.5c5.5,0,7.9,4.9,7.9,4.9s1.7-5.1,11.3-4.5
	c23.2,1.7,1.4,45.3,1.4,45.3s6.3,11.5,9.6,16.5l2,8.9l-47.3-2.5L68.3,158.7L68.3,158.7z"/>
<g>
	<defs>
		<polygon id="SVGID_3_" points="60.7,102.9 60.7,158.9 80.3,158.9 80.3,102.9 60.7,102.9 		"/>
	</defs>
	<clipPath id="SVGID_4_">
		<use xlink:href="#SVGID_3_"  style="overflow:visible;"/>
	</clipPath>
	<path class="st4" d="M80.1,106.1c4.5,1,5.4,5,5.4,5l-0.8,15.5c0,0-1.1,5-2.7,8.5c-1.6,3.6-5.3,10-5.3,10s-16.6-39.2,1.4-39.2
		C78.8,105.9,79.5,105.9,80.1,106.1 M78,158 M63.9,171.5"/>
</g>
<path class="st0" d="M108.1,165.6c1.7-0.8,3.9-0.2,4.8,0.6l11-9.3l4.7,3c0,0-13.8,30.1-42,30.1c-28.1,0-47.7-27.9-47.7-27.9
	L56,147.7c0,0,6.1,8.8,9.1,11.3c0,0,3.3-1,4.8,0.7c2.7,2.9,1.8,6.3,1.8,6.3s3.3,4.9,14.3,6.4c11.1,1.4,19.3-3,19.3-3
	S105.1,166.9,108.1,165.6L108.1,165.6z"/>
<path class="st5" d="M108.1,165.6c1.7-0.8,3.9-0.2,4.8,0.6l11-9.3l4.7,3c0,0-13.8,30.1-42,30.1c-28.1,0-47.7-27.9-47.7-27.9
	L56,147.7c0,0,6.1,8.8,9.1,11.3c0,0,3.3-1,4.8,0.7c2.7,2.9,1.8,6.3,1.8,6.3s3.3,4.9,14.3,6.4c11.1,1.4,19.3-3,19.3-3
	S105.1,166.9,108.1,165.6L108.1,165.6z"/>
<path class="st0" d="M52.7,176.5c0,0,6-2.1,9.3-6c3.1-3.6,3.6-9.9,6.3-8.3c2.8,1.7,0,7.3-4.7,12.4c-1.5,1.6-7.1,4.9-7.1,4.9
	L52.7,176.5L52.7,176.5z"/>
<path class="st5" d="M52.7,176.5c0,0,6-2.1,9.3-6c3.1-3.6,3.6-9.9,6.3-8.3c2.8,1.7,0,7.3-4.7,12.4c-1.5,1.6-7.1,4.9-7.1,4.9
	L52.7,176.5L52.7,176.5z"/>
<path class="st0" d="M110,182.1c0,0,1.2-2.5,0.4-5.6c-0.8-3.1-4-7.4-0.9-8.3c3.1-0.8,6.4,7.7,5.5,9.7
	C114.5,178.8,110,182.1,110,182.1L110,182.1z"/>
<path class="st5" d="M110,182.1c0,0,1.2-2.5,0.4-5.6c-0.8-3.1-4-7.4-0.9-8.3c3.1-0.8,6.4,7.7,5.5,9.7
	C114.5,178.8,110,182.1,110,182.1L110,182.1z"/>
<path d="M60.9,180.7c0,0,1.3-0.6,2-1.1c0.8-0.6,1.9-1.7,1.9-1.7s5.3,4.6,17.7,5.6c14.1,1.1,24.3-3.3,24.3-3.3l0.6,1.7
	c0,0-10.2,6.1-24.6,5.5C69.6,186.8,60.9,180.7,60.9,180.7L60.9,180.7z"/>
<path d="M45.9,164c1.9-1.4,3.7,0.9,5.6,3.1c1.9,2.2,4.8,4.7,4.8,4.7s-0.7,0.8-1.5,1.5c-0.8,0.6-1.6,0.9-1.6,0.9s-3.4-2.9-4.8-4.5
	C46.8,168.1,44,165.4,45.9,164L45.9,164z"/>
<path class="st0" d="M75.4,188.7c0,0-1.6,5.2-3.2,5.5c-1.7,0.3-3,2.4-3.3,3.9c-0.3,1.5-6.9,6.7-2.5,8.9c4.4,2.2,5-3.6,6.1-5.2
	c1.1-1.7,2.8-3.9,2.5-5c-0.3-1.1,2-7.7,2-7.7L75.4,188.7L75.4,188.7z"/>
<path class="st0" d="M97.3,188.7c0,0,1.6,5.5,3.3,5.8c1.7,0.3,3,2.4,3.3,3.9c0.3,1.5,6.9,6.7,2.5,8.9c-4.4,2.2-5-3.6-6.1-5.2
	c-1.1-1.7-2.8-3.9-2.5-5c0.3-1.1-2-7.7-2-7.7L97.3,188.7L97.3,188.7z"/>
<path class="st0" d="M125.8,157.5c1.9,1,2.9,2.7,2.4,3.7c-0.5,1-2.5,0.9-4.4-0.1c-1.9-1-2.9-2.7-2.4-3.6
	C121.9,156.4,123.9,156.4,125.8,157.5L125.8,157.5z"/>
<path class="st5" d="M125.8,157.5c1.9,1,2.9,2.7,2.4,3.7c-0.5,1-2.5,0.9-4.4-0.1c-1.9-1-2.9-2.7-2.4-3.6
	C121.9,156.4,123.9,156.4,125.8,157.5L125.8,157.5z"/>
<path class="st0" d="M43.4,149.5c5-3.7,10.5-4.8,12.3-2.4c1.8,2.4-0.7,7.4-5.7,11.2c-5,3.7-10.5,4.8-12.3,2.4
	C35.8,158.2,38.4,153.2,43.4,149.5L43.4,149.5z"/>
<path class="st5" d="M43.4,149.5c5-3.7,10.5-4.8,12.3-2.4c1.8,2.4-0.7,7.4-5.7,11.2c-5,3.7-10.5,4.8-12.3,2.4
	C35.8,158.2,38.4,153.2,43.4,149.5L43.4,149.5z"/>
<path d="M95.4,172.6c-1-4.7-0.7-7.6,0.1-12.3c0.6-3.3,2.4-8.1,2.4-8.1s3.2,5,5,8.3c0.9,1.7,3,4.3,3.8,6c0,0-0.9,0.6-1.2,1.2
	c-0.3,0.6-0.2,1.8-0.2,1.8c-1.1,0.8-2.7,1.4-3.9,1.8C99.8,171.9,97.8,172.5,95.4,172.6L95.4,172.6z"/>
<path class="st5" d="M86.5,190.1c-28.1,0-47.7-27.9-47.7-27.9"/>
</svg>
